# xmcd CD database file
#
# Track frame offsets:
#	150
#	23689
#	51679
#	81683
#	113585
#	136600
#	165704
#	194664
#	217163
#
# Disc length: 3253 seconds
#
# Revision: 0
# Processed by: cddbd v1.5.1PL0 Copyright (c) Steve Scherf et al.
# Submitted via: CDex 1.51
#
DISCID=850cb309
DTITLE=Billy Novick - A Rose in the Desert
DYEAR=2002
DGENRE=Jazz
TTITLE0=What is this thing called love?
TTITLE1=Rabbit's foot
TTITLE2=Prisoner of Love
TTITLE3=Stella by Starlight
TTITLE4=A Rose in the Desert Blooms
TTITLE5=Three Wishes
TTITLE6=(How Little it Matters) How Little we Know
TTITLE7=That Certain Feeling
TTITLE8=You don't know what love is
EXTD=YEAR: 2002
EXTT0=
EXTT1=
EXTT2=
EXTT3=
EXTT4=
EXTT5=
EXTT6=
EXTT7=
EXTT8=
PLAYORDER=
